<?xml version="1.0" encoding="UTF-8"?>
<svg xmlns="http://www.w3.org/2000/svg" width="128" height="128" viewBox="0 0 128 128">
  <g transform="translate(64 64) scale(1.4816) translate(-64.04 -56.14)">
    <path fill="#232E38" transform="scale(0.125 0.125)" d="M383.385 258.248L633.623 258.122L699.381 258.373C710.394 258.396 722.046 258.126 732.987 258.825C740.415 259.299 749.212 264.363 754.468 269.567C760.057 275.037 763.771 282.135 765.078 289.845C766.1 296.207 765.681 312.227 765.743 319.434C765.898 342.874 765.861 366.315 765.633 389.754L765.76 594.233C765.757 609.019 765.481 618.09 754.557 629.212C741.327 642.68 721.878 639.456 704.362 639.443L642.848 639.38L396.768 639.36L324.565 639.479C320.301 639.479 315.884 639.476 311.709 639.475C295.901 639.471 282.315 641.241 270.217 628.864C261.9 620.355 259.07 612.251 258.998 600.282L259.222 401.028L259.08 329.515C259.041 316.642 258.535 302.048 259.733 289.36C260.897 282.144 265.13 274.782 270.078 269.692C283.892 255.485 303.33 258.516 321.517 258.467L383.385 258.248Z"/>
    <path fill="white" transform="scale(0.125 0.125)" d="M338.692 364.89C338.939 355.076 339.4 347.052 347.187 339.739C356.259 331.219 367.382 332.533 378.903 332.52L408.859 332.523L505.108 332.522L655.507 332.508L704.317 332.527C712.779 332.524 721.323 332.395 729.777 332.569C737.005 332.719 742.862 336.176 747.603 341.376C750.706 344.779 754.026 350.328 754.261 354.964C754.787 365.314 754.556 376.422 754.535 386.784L754.378 452.768L754.43 554.242L754.392 585.829C754.365 598.419 756.259 611.891 745.232 620.877C739.729 625.361 735.401 626.981 728.278 627.207C720.805 627.588 713.318 627.504 705.862 627.536L665.28 627.591L542.454 627.506L420.032 627.533L382.849 627.484C373.262 627.465 360.013 628.681 351.672 623.826C337.101 615.345 338.391 600.866 338.443 586.463L338.531 557.022L338.501 453.232C320.472 452.913 301.821 453.137 283.744 453.12C283.351 423.989 283.668 394.106 283.638 364.912C301.358 364.548 320.963 364.657 338.692 364.89Z"/>
    <path fill="#1aa39a" transform="scale(0.125 0.125)" d="M473.163 398.86C483.977 391.638 493.898 384.725 505.592 378.962C532.156 365.869 556.704 359.602 586.168 359.391C628.903 359.084 661.81 387.488 652.45 431.956C644.219 469.555 614.67 500.544 583.423 521.326C548.28 544.301 505.073 560.474 462.656 552.499C452.01 550.498 440.934 545.16 432.751 538.064C406.128 514.975 411.459 481.691 426.058 453.174C397.265 453.151 367.201 452.711 338.501 453.232C320.472 452.913 301.821 453.137 283.744 453.12C283.351 423.989 283.668 394.106 283.638 364.912C301.358 364.548 320.963 364.657 338.692 364.89C344.702 365.131 350.73 364.299 356.593 364.464C395.39 365.561 434.205 364.631 473.102 364.798C473.364 376.176 472.802 387.561 473.163 398.86Z"/>
    <path fill="white" transform="scale(0.125 0.125)" d="M574.866 370.708C592.846 369.512 613.211 371.627 627.651 383.499C636.539 390.73 642.075 401.288 642.967 412.712C645.468 441.658 622.692 473.541 602.23 492.257C572.066 519.848 534.1 539.443 493.018 543.158C480.298 544.891 461.044 542.34 449.622 536.263C414.296 517.469 423.588 482.301 438.622 453.095C450.078 452.945 461.536 452.971 472.992 453.172L473.009 414.134C476.534 410.59 483.524 405.533 487.791 402.573C513.607 384.668 543.59 373.696 574.866 370.708Z"/>
    <path fill="#232E38" transform="scale(0.125 0.125)" d="M508.08 587.241L646.506 587.107L696.323 587.159C705.184 587.178 714.165 587.121 723.016 587.34C724.649 587.504 727.72 587.467 728.847 588.937C732.728 593.997 728.637 597.99 723.625 598.24L573.229 598.189C561.715 598.167 509.906 599.378 503.639 596.963C502.287 596.443 501.74 595.661 501.139 594.372C500.821 589.685 503.656 587.543 508.08 587.241Z"/>
    <path fill="#E3443B" transform="scale(0.125 0.125)" d="M658.398 496.101C663.469 496.177 701.496 503.852 704.262 506.077C705.67 507.211 706.438 509.145 706.436 510.924C706.429 515.518 697.634 522.137 694.506 525.323C699.664 529.722 704.005 534.952 708.827 539.627C715.436 546.034 724.061 554.491 711.449 560.443C711.084 560.444 710.718 560.437 710.354 560.423C703.797 560.126 688.846 542.055 683.656 536.392C679.873 540.367 675.58 545.921 670.783 548.607C669.298 549.438 668.02 549.725 666.358 549.152C664.865 548.637 663.461 547.095 662.867 545.677C660.654 540.386 651.777 504.046 653.362 500.216C654.319 497.902 656.196 496.993 658.398 496.101Z"/>
    <path fill="#232E38" transform="scale(0.125 0.125)" d="M368.772 587.125C388.809 586.42 412.51 587.066 432.812 587.053L455.794 587.018C460.193 587.014 465.441 586.755 469.748 587.368C476.521 588.331 476.238 595.143 470.875 598.275C465.943 598.597 458.783 598.372 453.616 598.369L422.638 598.34L387.475 598.291C381.913 598.283 373.371 598.766 368.207 597.679C362.608 596.5 363.238 589.806 368.772 587.125Z"/>
  </g>
</svg>
